<svg xmlns="http://www.w3.org/2000/svg" width="45.216" height="45.207" viewBox="0 0 45.216 45.207">
  <g id="creative_work" transform="translate(0 -0.049)">
    <path id="Path_2" data-name="Path 2" d="M43.888.05A35.745,35.745,0,0,0,18.4,11L16.01,13.389l-2.54-2.54-7.5,2.116L0,18.94l5.23,5.23h0l.27.27L3.04,29.515l1.622,1.622L.7,35.1l1.874,1.874,3.966-3.966,1.918,1.918-8.4,8.4L1.928,45.2l8.4-8.4,1.918,1.918L8.279,42.687l1.874,1.874,3.966-3.966,1.622,1.622,5.075-2.46,5.5,5.5,5.973-5.973,2.123-7.491-2.546-2.546,2.389-2.389A36.385,36.385,0,0,0,42.2,15.47,35.313,35.313,0,0,0,45.216.049ZM7.359,15.328,12.7,13.822l1.441,1.441L7.1,22.3,3.747,18.94Zm8.922,23.681L6.247,28.975l1.237-2.551L18.832,37.772Zm15.158-6.443L29.928,37.9l-3.612,3.612L22.96,38.153l7.033-7.033Zm.969-7.609-2.415,2.415h0l-8.906,8.906L8.977,24.17l8.907-8.907L20.3,12.85A33.158,33.158,0,0,1,42.534,2.731,33.081,33.081,0,0,1,32.408,24.958Z"/>
    <path id="Path_3" data-name="Path 3" d="M261.128,134.648a6.038,6.038,0,1,0-8.538,0A6.05,6.05,0,0,0,261.128,134.648Zm-4.265-7.663a3.386,3.386,0,1,1-3.39,3.387C253.472,129.465,255.007,126.985,256.863,126.985Z" transform="translate(-228.669 -113.308)"/>
  </g>
</svg>
