<svg xmlns="http://www.w3.org/2000/svg" width="53.643" height="48.728" viewBox="0 0 53.643 48.728">
  <g id="make_new_friends" transform="translate(0 -23.462)">
    <g id="Group_19" data-name="Group 19" transform="translate(48.99 55.448)">
      <g id="Group_18" data-name="Group 18">
        <path id="Path_4" data-name="Path 4" d="M471.93,331.591l-2.557-2.537a1.048,1.048,0,0,0-1.476,1.488l2.557,2.536a1.048,1.048,0,0,0,1.476-1.488Z" transform="translate(-467.587 -328.751)"/>
      </g>
    </g>
    <g id="Group_21" data-name="Group 21" transform="translate(46.38 52.85)">
      <g id="Group_20" data-name="Group 20" transform="translate(0 0)">
        <path id="Path_5" data-name="Path 5" d="M444.465,304.258a1.048,1.048,0,0,0-1.482,0l0,0a1.048,1.048,0,1,0,1.484,0Z" transform="translate(-442.675 -303.952)"/>
      </g>
    </g>
    <g id="Group_23" data-name="Group 23" transform="translate(0 23.462)">
      <g id="Group_22" data-name="Group 22" transform="translate(0)">
        <path id="Path_6" data-name="Path 6" d="M39.236,57.988,49.4,47.823a3.946,3.946,0,0,0-1.9-6.638,3.95,3.95,0,0,0-2.911-5.556A3.942,3.942,0,0,0,41.511,30.5a3.951,3.951,0,0,0-5.636-4.71l-.1-.109a6.993,6.993,0,0,0-5.1-2.222H22.442a1.048,1.048,0,0,0-1.048,1.048v1.374a4.761,4.761,0,0,0,.271,1.589A3.949,3.949,0,0,0,16.4,32.361a3.949,3.949,0,0,0-3.08,5.126,3.949,3.949,0,0,0-2.908,5.553,3.949,3.949,0,0,0-1.905,6.641L10.6,51.771.306,62.063a1.048,1.048,0,1,0,1.482,1.482L12.18,53.154a3.947,3.947,0,0,0,5.895-3.593c.053,0,.106,0,.159,0a3.946,3.946,0,0,0,3.949-3.947c0-.053,0-.106,0-.159.052,0,.1,0,.158,0a3.946,3.946,0,0,0,3.949-3.947c0-.053,0-.106,0-.159.052,0,.1,0,.158,0a3.947,3.947,0,0,0,3.054-6.45l6.956-6.956a1.853,1.853,0,1,1,2.621,2.621L38.045,31.6l-3.721,3.721A1.048,1.048,0,1,0,35.805,36.8l3.721-3.721A1.853,1.853,0,1,1,42.147,35.7l-1.026,1.026-2.7,2.7a1.048,1.048,0,1,0,1.482,1.482l2.7-2.7a1.853,1.853,0,1,1,2.621,2.621l-1.408,1.408-1.288,1.288a1.048,1.048,0,1,0,1.482,1.482L45.3,43.719a1.853,1.853,0,0,1,2.62,2.622L37.753,56.507A14.2,14.2,0,0,1,28.2,60.669a1.048,1.048,0,0,0-.7.308L18.1,70.4a1.048,1.048,0,1,0,1.485,1.479L26.5,64.948a9.74,9.74,0,0,0,5.916,1.522l5.406,5.406A1.048,1.048,0,1,0,39.3,70.395l-5.748-5.748a1.049,1.049,0,0,0-.827-.3l-.332.027a7.65,7.65,0,0,1-4.373-.952l.673-.676A16.283,16.283,0,0,0,39.236,57.988ZM15.442,51.031a1.853,1.853,0,0,1-2.621,0L9.99,48.2a1.853,1.853,0,1,1,2.621-2.621l2.832,2.831A1.855,1.855,0,0,1,15.442,51.031Zm4.1-4.1a1.855,1.855,0,0,1-2.621,0L14.092,44.1l-1.408-1.408a1.853,1.853,0,1,1,2.621-2.621l4.239,4.239h0a1.853,1.853,0,0,1,0,2.621Zm4.1-4.1a1.855,1.855,0,0,1-2.621,0L15.761,37.56a1.853,1.853,0,0,1,2.62-2.621l2.4,2.4L23.647,40.2h0a1.854,1.854,0,0,1,0,2.621Zm4.1-4.1a1.855,1.855,0,0,1-2.621,0l-5.265-5.265,0,0-1.024-1.024a1.853,1.853,0,0,1,2.621-2.621L27.75,36.1a1.853,1.853,0,0,1,0,2.621Zm.276-5.309-2.878-2.878a4.8,4.8,0,0,0,1,.107h.023l2.876-.014a1.048,1.048,0,0,0,0-2.1H29.04l-2.876.014h-.013a2.662,2.662,0,0,1-2.662-2.662v-.326H30.67a4.891,4.891,0,0,1,3.569,1.554l.043.046Z" transform="translate(0 -23.462)"/>
      </g>
    </g>
  </g>
</svg>
