<svg xmlns="http://www.w3.org/2000/svg" width="47.5" height="42.861" viewBox="0 0 47.5 42.861">
  <g id="support" transform="translate(0 -25)">
    <path id="Path_7" data-name="Path 7" d="M47.5,48.657a7.092,7.092,0,0,0-6.2-7.308A4.191,4.191,0,0,0,38.38,38.5,15.008,15.008,0,0,0,23.75,25,15.008,15.008,0,0,0,9.12,38.5,4.19,4.19,0,0,0,6.2,41.349q-.18.014-.358.039V32.329a1.392,1.392,0,0,0-2.783,0V42.5A7.523,7.523,0,0,0,0,48.657a7.092,7.092,0,0,0,6.2,7.308,4.19,4.19,0,0,0,2.9,2.842,7.34,7.34,0,0,0,7.221,6.085h.322a4.367,4.367,0,0,0,4.131,2.969h5.938a4.36,4.36,0,1,0,0-8.721H20.781a4.367,4.367,0,0,0-4.131,2.969h-.322a4.554,4.554,0,0,1-4.394-3.382,4.181,4.181,0,0,0,2.817-3.947V42.534a4.181,4.181,0,0,0-2.834-3.953,12.211,12.211,0,0,1,11.833-10.8,12.211,12.211,0,0,1,11.833,10.8,4.181,4.181,0,0,0-2.834,3.953V54.78a4.18,4.18,0,0,0,4.175,4.175h.371a4.182,4.182,0,0,0,4-2.99A7.092,7.092,0,0,0,47.5,48.657ZM20.781,61.924h5.938a1.577,1.577,0,1,1,0,3.154H20.781a1.577,1.577,0,1,1,0-3.154Zm-18-13.267a4.474,4.474,0,0,1,3.247-4.48v8.959A4.474,4.474,0,0,1,2.783,48.657Zm9.185,6.123a1.393,1.393,0,0,1-1.392,1.392h-.371A1.393,1.393,0,0,1,8.813,54.78V42.534a1.393,1.393,0,0,1,1.392-1.392h.371a1.393,1.393,0,0,1,1.392,1.392Zm26.719,0a1.393,1.393,0,0,1-1.392,1.392h-.371a1.393,1.393,0,0,1-1.392-1.392V42.534a1.393,1.393,0,0,1,1.392-1.392h.371a1.393,1.393,0,0,1,1.392,1.392Zm2.783-1.643V44.178a4.714,4.714,0,0,1,0,8.959Z" transform="translate(0)"/>
  </g>
</svg>
