<svg id="thinking_girl" xmlns="http://www.w3.org/2000/svg" width="369.363" height="367.278" viewBox="0 0 369.363 367.278">
  <path id="Path_308" data-name="Path 308" d="M749.9,256.8q6.644,3.507,12.989,7.178" transform="translate(-499.559 -157.86)" fill="none" stroke="#2f2e41" stroke-miterlimit="10" stroke-width="1"/>
  <path id="Path_309" data-name="Path 309" d="M562.441,223.849A283.367,283.367,0,0,1,624.1,245.417a294.935,294.935,0,0,1,44.016,25.833" transform="translate(-394.525 -139.4)" fill="none" stroke="#2f2e41" stroke-miterlimit="10" stroke-width="1"/>
  <line id="Line_5" data-name="Line 5" x2="198.102" transform="translate(103.608 366.366)" fill="none" stroke="#3f3d56" stroke-miterlimit="10" stroke-width="1"/>
  <path id="Path_310" data-name="Path 310" d="M521.327,216.817c5.806.714,11.85,1.745,18.078,3.092" transform="translate(-371.489 -135.46)" fill="none" stroke="#2f2e41" stroke-miterlimit="10" stroke-width="1"/>
  <path id="Path_311" data-name="Path 311" d="M377.537,275.9c-10.726-15.7-14.411-30.528-8.9-42.033,6.1-12.725,22.411-19.235,44.528-19.714" transform="translate(-284.515 -133.967)" fill="none" stroke="#2f2e41" stroke-miterlimit="10" stroke-width="1"/>
  <path id="Path_312" data-name="Path 312" d="M878.156,434.318c8.94,14.392,11.714,27.885,6.615,38.531-4.487,9.368-14.514,15.368-28.317,18.073" transform="translate(-559.258 -257.325)" fill="none" stroke="#2f2e41" stroke-miterlimit="10" stroke-width="1"/>
  <path id="Path_313" data-name="Path 313" d="M802.78,331.65a219.026,219.026,0,0,1,25.335,21" transform="translate(-529.185 -199.8)" fill="none" stroke="#2f2e41" stroke-miterlimit="10" stroke-width="1"/>
  <path id="Path_314" data-name="Path 314" d="M378.605,169.2c17.8-3.825,40.844-3.145,66.612,1.934" transform="translate(-291.522 -107.411)" fill="none" stroke="#2f2e41" stroke-miterlimit="10" stroke-width="1"/>
  <path id="Path_315" data-name="Path 315" d="M967.943,434.314c7.971,11.643,12.873,22.91,14.154,33.171" transform="translate(-621.725 -257.322)" fill="none" stroke="#2f2e41" stroke-miterlimit="10" stroke-width="1"/>
  <path id="Path_316" data-name="Path 316" d="M779.444,273.12q11.993,6.934,22.82,14.343" transform="translate(-516.11 -167.006)" fill="none" stroke="#2f2e41" stroke-miterlimit="10" stroke-width="1"/>
  <path id="Path_317" data-name="Path 317" d="M792.341,663.141a11.024,11.024,0,0,0-9.5,6.644c-2.376,5.743.683,12.49,5.276,16.678s10.492,6.582,15.852,9.729c7.2,4.226,13.669,10.094,17.271,17.625s3.986,16.86-.249,24.055c-3.93,6.678-11.077,10.675-17.892,14.361" transform="translate(-517.55 -385.533)" fill="none" stroke="#3f3d56" stroke-miterlimit="10" stroke-width="1"/>
  <ellipse id="Ellipse_13" data-name="Ellipse 13" cx="8.394" cy="4.077" rx="8.394" ry="4.077" transform="translate(272.45 274.031)" fill="#57b894"/>
  <ellipse id="Ellipse_14" data-name="Ellipse 14" cx="8.394" cy="4.077" rx="8.394" ry="4.077" transform="translate(279.165 300.892)" fill="#57b894"/>
  <ellipse id="Ellipse_15" data-name="Ellipse 15" cx="8.394" cy="4.077" rx="8.394" ry="4.077" transform="translate(263.816 305.209)" fill="#57b894"/>
  <ellipse id="Ellipse_16" data-name="Ellipse 16" cx="8.394" cy="4.077" rx="8.394" ry="4.077" transform="translate(287.799 327.754)" fill="#57b894"/>
  <ellipse id="Ellipse_17" data-name="Ellipse 17" cx="8.394" cy="4.077" rx="8.394" ry="4.077" transform="translate(304.587 327.754)" fill="#57b894"/>
  <path id="Path_318" data-name="Path 318" d="M693.49,303.075h4.729s4.335,33.5,1.182,36.648-11.822,5.123-13,0,0-24.038,0-24.038Z" transform="translate(-463.682 -183.79)" fill="#ff7533"/>
  <ellipse id="Ellipse_18" data-name="Ellipse 18" cx="28.767" cy="33.693" rx="28.767" ry="33.693" transform="translate(170.107 56.431)" fill="#2f2e41"/>
  <path id="Path_319" data-name="Path 319" d="M612.452,246.073s1.576,13-3.152,15.763,5.517,18.521,5.517,18.521l12.216,3.153,8.275-11.428-1.576-11.822s-9.458-9.458-5.123-18.127Z" transform="translate(-420.081 -149.644)" fill="#ffc1c7"/>
  <path id="Path_320" data-name="Path 320" d="M612.452,246.073s1.576,13-3.152,15.763,5.517,18.521,5.517,18.521l12.216,3.153,8.275-11.428-1.576-11.822s-9.458-9.458-5.123-18.127Z" transform="translate(-420.081 -149.644)" opacity="0.1"/>
  <path id="Path_321" data-name="Path 321" d="M575.051,566.613s-4.729,42.953,0,53.2,17.339,39.013,17.339,39.013l-3.941,8.275,10.64-2.364,4.335-8.275s-5.123-20.1-5.911-27.191-6.7-20.1-6.7-20.1l11.034-46.894Z" transform="translate(-400.412 -329.02)" fill="#ffc1c7"/>
  <path id="Path_322" data-name="Path 322" d="M662.869,548.777s.394,43.348,3.153,50.071l-1.576,58.716,8.67,1.157s12.61-49.259,10.64-61.081.394-54.381.394-54.381Z" transform="translate(-450.794 -318.364)" fill="#ffc1c7"/>
  <circle id="Ellipse_19" data-name="Ellipse 19" cx="14.975" cy="14.975" r="14.975" transform="translate(183.899 71.8)" fill="#ffc1c7"/>
  <path id="Path_323" data-name="Path 323" d="M645.078,407.447s-10.64,7.093-14.975,1.97-57.534,3.153-64.233,1.576,3.547-26.8,3.547-39.8c0-9.73,3.531-24.531,5.308-31.372.6-2.3,1-3.7,1-3.7s4.043-11.5,3.287-16.283a4.107,4.107,0,0,0-.3-1.052,2.148,2.148,0,0,0-.232-.4c-1.888-2.518-7.3-20.882-9.4-28.767a35.586,35.586,0,0,1-.847-3.547c0-1.182,14.581-4.729,18.226-4.9s4.63,4.9,4.63,4.9c1.182.788,6.7,14.581,6.7,14.581l5.123-13s-.394-2.759-.788-2.759,5.828-3.72,5.828-3.72,6.388,4.508,9.934,3.72,11.822,6.305,11.822,6.305-14.581,36.648-8.67,44.53S645.078,407.447,645.078,407.447Z" transform="translate(-395.173 -171.517)" fill="#ff7533"/>
  <path id="Path_324" data-name="Path 324" d="M599.349,772.857s-6.7,6.7-6.7,7.487l-5.517-2.364s-2.364,8.669-2.758,9.852-7.093,11.822-13.792,16.551,0,10.64,5.911,9.458,20.886-14.581,20.886-14.581,10.246,0,13.792-7.881C611.171,791.378,601.713,772.069,599.349,772.857Z" transform="translate(-397.52 -446.993)" fill="#2f2e41"/>
  <path id="Path_325" data-name="Path 325" d="M669.2,794.366s-10.124-7.355-10.776-.525-.652,21.8-.652,21.8-3.153,9.852,6.7,8.67,10.64-3.941,10.64-3.941l-4.729-18.915v-8.276Z" transform="translate(-447.671 -457.135)" fill="#2f2e41"/>
  <path id="Path_326" data-name="Path 326" d="M585.469,329.154c-1.888-2.518-7.3-20.882-9.4-28.767h1.911s4.8,18.785,7.72,29.165A2.157,2.157,0,0,0,585.469,329.154Z" transform="translate(-402.161 -182.283)" opacity="0.1"/>
  <path id="Path_327" data-name="Path 327" d="M618.668,393.666s-5.517.394-25.614-3.547a40.175,40.175,0,0,1-4.15-1.029c.6-2.3,1-3.7,1-3.7s4.043-11.5,3.287-16.283a34.543,34.543,0,0,0,1.836,5.643c.788.394,26.009,4.729,29.555,6.305S618.668,393.666,618.668,393.666Z" transform="translate(-409.352 -220.788)" opacity="0.1"/>
  <path id="Path_328" data-name="Path 328" d="M672.727,307.042s10.869-1.341,11.543.421,3.432,18.795,4.614,20.978,1.576,15.722-3.152,16.159-11.034-4.367-9.852-8.3S672.727,307.042,672.727,307.042Z" transform="translate(-456.317 -185.739)" opacity="0.1"/>
  <path id="Path_329" data-name="Path 329" d="M655.661,388.48s16.551,1.97,19.309,0,14.187-1.97,11.822,3.547-22.856,5.911-22.856,5.911H652.114Z" transform="translate(-444.768 -230.97)" fill="#ffc1c7"/>
  <path id="Path_330" data-name="Path 330" d="M570.7,294.112h-2.759s-5.517,1.182-4.729,18.521-4.729,28.767,15.369,32.708,25.615,3.547,25.615,3.547,9.458-11.034,5.911-12.61-28.767-5.911-29.555-6.305S570.7,294.112,570.7,294.112Z" transform="translate(-394.884 -178.768)" fill="#ff7533"/>
  <path id="Path_331" data-name="Path 331" d="M671.3,278.792s-6.905-25.905-12.422-25.905-11.822,1.182-7.093,6.305,10.64,10.64,11.034,13.4a37.129,37.129,0,0,0,1.97,6.7Z" transform="translate(-443.654 -155.67)" fill="#ffc1c7"/>
  <path id="Path_332" data-name="Path 332" d="M676.312,307.042s10.869-1.341,11.543.421,3.432,18.795,4.614,20.978,1.576,15.722-3.153,16.159-11.034-4.367-9.852-8.3S676.312,307.042,676.312,307.042Z" transform="translate(-458.326 -185.739)" fill="#ff7533"/>
  <circle id="Ellipse_20" data-name="Ellipse 20" cx="14.187" cy="14.187" r="14.187" transform="translate(180.746 58.401)" fill="#2f2e41"/>
  <path id="Path_333" data-name="Path 333" d="M572.744,470.953c-22.015-3.628-46.92-11.516-72.044-23.55-28.606-13.7-52.845-30.553-70.117-47.584" transform="translate(-320.645 -237.995)" fill="none" stroke="#2f2e41" stroke-miterlimit="10" stroke-width="1"/>
  <path id="Path_334" data-name="Path 334" d="M483.483,482.385a356.209,356.209,0,0,1-52.9-33.359" transform="translate(-320.644 -265.566)" fill="none" stroke="#2f2e41" stroke-miterlimit="10" stroke-width="1"/>
  <circle id="Ellipse_21" data-name="Ellipse 21" cx="23.612" cy="23.612" r="23.612" transform="translate(0 10.12)" fill="#ff7533"/>
  <circle id="Ellipse_22" data-name="Ellipse 22" cx="23.612" cy="23.612" r="23.612" transform="translate(5.539 0.5)" fill="none" stroke="#2f2e41" stroke-miterlimit="10" stroke-width="1"/>
  <circle id="Ellipse_23" data-name="Ellipse 23" cx="13.738" cy="13.738" r="13.738" transform="translate(338.164 105.282)" fill="#f2f2f2"/>
  <circle id="Ellipse_24" data-name="Ellipse 24" cx="13.738" cy="13.738" r="13.738" transform="translate(341.386 99.685)" fill="none" stroke="#2f2e41" stroke-miterlimit="10" stroke-width="1"/>
  <circle id="Ellipse_25" data-name="Ellipse 25" cx="19.748" cy="19.748" r="19.748" transform="translate(81.543 242.477)" fill="#f2f2f2"/>
  <circle id="Ellipse_26" data-name="Ellipse 26" cx="19.748" cy="19.748" r="19.748" transform="translate(86.176 234.431)" fill="none" stroke="#2f2e41" stroke-miterlimit="10" stroke-width="1"/>
</svg>
