<svg id="timer" xmlns="http://www.w3.org/2000/svg" xmlns:xlink="http://www.w3.org/1999/xlink" width="389.874" height="290.044" viewBox="0 0 389.874 290.044">
  <defs>
    <linearGradient id="linear-gradient" x1="0.5" y1="1" x2="0.5" gradientUnits="objectBoundingBox">
      <stop offset="0" stop-color="gray" stop-opacity="0.251"/>
      <stop offset="0.54" stop-color="gray" stop-opacity="0.122"/>
      <stop offset="1" stop-color="gray" stop-opacity="0.102"/>
    </linearGradient>
  </defs>
  <path id="Path_335" data-name="Path 335" d="M120.293,92.9c-2.426,1.006-4.916,2.3-6.249,4.563-1.412,2.392-1.243,5.363-.98,8.131,2.291,24.006,8.326,49.536-2.1,71.281-5.059,10.549-13.52,19-20.25,28.584S78.906,227,82.031,238.275c3.816,13.772,18.057,21.407,27.656,32.005,6.283,6.929,10.688,15.349,16.551,22.639s13.9,13.712,23.254,14.14c13.46.62,24.411-11,37.608-13.7,13.52-2.757,27.134,4.259,38.1,12.656s20.934,18.571,33.706,23.814c14.106,5.795,30.007,4.909,44.857,8.39,13.52,3.173,25.966,9.922,39.389,13.52s29.155,3.38,39.554-5.81c13.554-12.018,12.487-33.425,21.144-49.322,8.041-14.771,23.78-23.589,34.375-36.647,19.063-23.5,18.44-59.424,2.253-84.985s-45.506-41.037-75.487-45.067c-13.52-1.814-27.442-1.566-40.44-5.693-34.792-11.041-55.5-50.6-91.016-58.835-22.579-5.224-44.537,3.823-63.77,14.958C153.068,90.009,137.666,85.7,120.293,92.9Z" transform="translate(-81.087 -63.864)" fill="#ff7533" opacity="0.1"/>
  <path id="Path_336" data-name="Path 336" d="M195.226,347.69s-12.818,12.1-26.574,12.457a26.7,26.7,0,0,0-15.912,5.66,44.9,44.9,0,0,0-5.949,5.66" transform="translate(-122.115 -241.097)" fill="none" stroke="#535461" stroke-miterlimit="10" stroke-width="2"/>
  <path id="Path_337" data-name="Path 337" d="M119.906,410.928c1.848-.939,8.9-.316,8.9-.316s-3.658,6.065-5.506,7a3.756,3.756,0,1,1-3.38-6.689Z" transform="translate(-103.906 -280.262)" fill="#ff7533"/>
  <path id="Path_338" data-name="Path 338" d="M136.843,383.229c2.062.218,7.643,4.574,7.643,4.574s-6.384,3.1-8.427,2.888a3.756,3.756,0,0,1,.785-7.462Z" transform="translate(-113.418 -263.285)" fill="#ff7533"/>
  <path id="Path_339" data-name="Path 339" d="M180.632,359.181c1.667,1.228,4.289,7.808,4.289,7.808s-7.064-.537-8.732-1.761a3.756,3.756,0,0,1,4.443-6.047Z" transform="translate(-139.602 -247.879)" fill="#ff7533"/>
  <path id="Path_340" data-name="Path 340" d="M220.4,350.005c1.852.928,5.547,6.97,5.547,6.97s-7.053.665-8.9-.263a3.756,3.756,0,1,1,3.358-6.708Z" transform="translate(-164.578 -242.237)" fill="#ff7533"/>
  <path id="Path_341" data-name="Path 341" d="M161.97,398.95c.616-1.979-1.187-8.829-1.187-8.829s-5.363,4.627-5.979,6.606a3.756,3.756,0,1,0,7.166,2.224Z" transform="translate(-126.978 -267.592)" fill="#ff7533"/>
  <path id="Path_342" data-name="Path 342" d="M207.714,388.587c0-2.073-3.774-8.067-3.774-8.067s-3.733,6.009-3.729,8.09a3.756,3.756,0,0,0,7.511-.022Z" transform="translate(-155.473 -261.598)" fill="#ff7533"/>
  <path id="Path_343" data-name="Path 343" d="M250.933,370.359c.346-2.043-2.359-8.589-2.359-8.589s-4.7,5.3-5.04,7.346a3.756,3.756,0,0,0,7.4,1.247Z" transform="translate(-182.509 -249.889)" fill="#ff7533"/>
  <path id="Path_344" data-name="Path 344" d="M257.7,197.91s-15.439-8.48-20.028-21.471a26.7,26.7,0,0,0-10.279-13.4,44.911,44.911,0,0,0-7.226-3.906" transform="translate(-167.936 -123.352)" fill="none" stroke="#535461" stroke-miterlimit="10" stroke-width="2"/>
  <path id="Path_345" data-name="Path 345" d="M201.918,135.749c1.461,1.468,3.034,8.375,3.034,8.375s-6.9-1.615-8.356-3.087a3.756,3.756,0,0,1,5.322-5.288Z" transform="translate(-152.613 -108.14)" fill="#ff7533"/>
  <path id="Path_346" data-name="Path 346" d="M233.219,142.168c.428,2.028-2,8.679-2,8.679s-4.909-5.1-5.337-7.136a3.756,3.756,0,1,1,7.342-1.547Z" transform="translate(-171.428 -110.792)" fill="#ff7533"/>
  <path id="Path_347" data-name="Path 347" d="M269.834,176.777c-.654,1.964-6.11,6.482-6.11,6.482s-1.66-6.884-1.006-8.852a3.759,3.759,0,1,1,7.136,2.37Z" transform="translate(-194.409 -131.284)" fill="#ff7533"/>
  <path id="Path_348" data-name="Path 348" d="M290.627,212.064c-.312,2.047-4.927,7.421-4.927,7.421s-2.8-6.5-2.49-8.551a3.756,3.756,0,1,1,7.417,1.127Z" transform="translate(-207.286 -153.595)" fill="#ff7533"/>
  <path id="Path_349" data-name="Path 349" d="M219.843,173.593c2.073-.022,8.037-3.846,8.037-3.846s-6.05-3.68-8.123-3.658a3.756,3.756,0,0,0,.086,7.511Z" transform="translate(-165.36 -127.698)" fill="#ff7533"/>
  <path id="Path_350" data-name="Path 350" d="M242.918,214.111c1.968-.642,6.516-6.073,6.516-6.073s-6.876-1.7-8.844-1.059a3.756,3.756,0,1,0,2.328,7.136Z" transform="translate(-178.985 -153.141)" fill="#ff7533"/>
  <path id="Path_351" data-name="Path 351" d="M273.711,249.494c2.051-.3,7.451-4.882,7.451-4.882s-6.49-2.839-8.536-2.539a3.756,3.756,0,1,0,1.089,7.425Z" transform="translate(-198.587 -175.132)" fill="#ff7533"/>
  <circle id="Ellipse_27" data-name="Ellipse 27" cx="135.952" cy="135.952" r="135.952" transform="translate(60.064 8.415)" fill="url(#linear-gradient)"/>
  <circle id="Ellipse_28" data-name="Ellipse 28" cx="133.699" cy="133.699" r="133.699" transform="translate(62.317 10.668)" fill="#ff7533"/>
  <circle id="Ellipse_29" data-name="Ellipse 29" cx="106.283" cy="106.283" r="106.283" transform="translate(89.733 38.084)" fill="#f7ebe7"/>
  <g id="Group_70" data-name="Group 70" transform="translate(89.725 38.084)" opacity="0.1">
    <path id="Path_352" data-name="Path 352" d="M328.262,284.322a106.29,106.29,0,0,1,191.219-63.9A106.294,106.294,0,1,0,341.358,335.458a105.8,105.8,0,0,1-13.1-51.136Z" transform="translate(-320 -165.27)"/>
  </g>
  <path id="Path_375" data-name="Path 375" d="M705.32,326.79s8.4,3.087,13.9.687l2.745.173s4.563,3.2,9.389,1.769" transform="translate(-470.885 -228.046)" opacity="0.05"/>
  <path id="Path_376" data-name="Path 376" d="M809.83,313.09s-1.371,3.26-.687,4.289" transform="translate(-535.597 -219.492)" opacity="0.05"/>
  <path id="Path_377" data-name="Path 377" d="M665.58,310.35s.687,3.26,0,4.289" transform="translate(-446.069 -217.78)" opacity="0.05"/>
  <path id="Path_378" data-name="Path 378" d="M1007.745,508.14a37.519,37.519,0,0,0-6.843,39.028c8.871,23.315-15.2,62.087-15.2,62.087s.259-.038.751-.12c32.271-5.7,48.3-42.6,30.36-70.023C1010.123,528.916,1004.647,516.958,1007.745,508.14Z" transform="translate(-645.966 -341.289)" fill="#ff7533"/>
  <path id="Path_379" data-name="Path 379" d="M1007.745,508.84a37.519,37.519,0,0,0-6.843,39.028c8.871,23.314-15.2,62.083-15.2,62.083s.259-.038.751-.12c32.271-5.7,48.3-42.6,30.36-70.023C1010.123,529.616,1004.647,517.658,1007.745,508.84Z" transform="translate(-645.966 -341.726)" opacity="0.1"/>
  <path id="Path_380" data-name="Path 380" d="M1007.739,508.14s-8.871,19.259,0,34.972,1.5,59.807-22.049,66.143" transform="translate(-645.96 -341.289)" fill="none" stroke="#535461" stroke-miterlimit="10" stroke-width="1"/>
  <path id="Path_381" data-name="Path 381" d="M1029.05,677.034s-17.929-2.854-19.563,13.212S975,708.54,975,708.54l.616.409c27.115,17.8,53.04,11.338,49.13-12.3C1023.3,687.865,1023.424,679.039,1029.05,677.034Z" transform="translate(-639.284 -446.631)" fill="#ff7533"/>
  <path id="Path_382" data-name="Path 382" d="M1029.076,677.36s-13.918,3.053-12.769,15.71-20.656,27.825-41.267,15.8" transform="translate(-639.309 -446.957)" fill="none" stroke="#535461" stroke-miterlimit="10" stroke-width="1"/>
  <path id="Path_383" data-name="Path 383" d="M984.737,739.755s-14.121-2.824-17.888-6.591-20.712-10.354-22.594-5.633-25.418,20.712-9.415,23.536,37.657,3.756,42.363,1.878S984.737,739.755,984.737,739.755Z" transform="translate(-610.745 -477.261)" fill="#a8a8a8"/>
  <path id="Path_384" data-name="Path 384" d="M934.847,772.192c16.006,2.824,37.657,3.755,42.363,1.878,3.587-1.435,6.076-8.322,7.06-11.53l.469.1s-2.824,11.3-7.53,13.178-26.361.943-42.363-1.878c-4.619-.815-5.941-2.73-5.442-5.153C929.8,770.367,931.407,771.583,934.847,772.192Z" transform="translate(-610.751 -500.147)" opacity="0.2"/>
</svg>
